PathFileType	4	(X/Y/Z)	C:\Users\°ÂÌØÂü\Desktop\20210112\bx_n_0_503-Unnamed.trc
DataRate	CameraRate	NumFrames	NumMarkers	Units	OrigDataRate	OrigDataStartFrame	OrigNumFrames
50.00	50.00	       4	0	mm	50.00	1	       333
Frame#	Time	
		

1	0.000	-663.10321	114.94033	1847.08423	-704.14337	285.77658	1525.19922	-565.90863	-6.47245	1053.85828	-562.64813	-7.44139	800.48462	-678.10699	141.68196	575.01550	-568.53650	220.21925	791.18311	-673.85321	268.71500	743.08533	-710.80658	251.47673	642.58899	-661.84827	203.08572	532.87817	-753.28674	257.61142	503.27332	-517.79626	-73.00499	143.30394	-718.51923	69.44177	217.16338	-549.15900	-24.76581	164.91922	-675.07611	52.07523	159.70439	-795.08606	179.56726	185.30933	-764.10547	226.99767	206.09554	-588.61536	207.75317	174.15210	-882.56934	296.14951	144.69809	-552.17719	243.47946	165.98265	-652.80554	292.03375	156.86258	-615.46100	297.82016	158.58798	-528.18390	304.18793	146.52794	-669.92963	-75.73861	1533.99194	-773.61346	89.29552	1056.58411	-793.50616	39.16127	175.84554	-751.41162	-46.39636	490.63293	-600.20215	27.62402	168.18379	-875.93073	-78.79627	141.25227	-634.32123	-74.60371	870.42938	-660.54895	-64.48721	755.83960				-692.86292	-37.68309	614.52722	-703.56396	-34.75757	568.52435	-713.53638	150.38329	216.03018	-675.03308	165.85553	156.84612	-606.38019	-72.70918	158.12592	-649.06470	-68.21162	160.80168	-759.50555	-20.03206	207.56673	-656.29578	11.78151	518.14618	-580.69971	109.72472	1352.01807				-580.84119	241.56789	1064.42896	-662.96417	284.11108	872.53723	-680.19537	72.01312	573.43195	-711.72162	245.91264	575.98962	
2	0.020	-663.08484	115.08004	1846.97607	-704.07410	285.80972	1525.03735	-565.71460	-6.44692	1053.78845	-562.71790	-7.55119	800.49341	-678.41345	141.72826	574.77631	-568.62799	220.31532	791.07251	-673.99066	268.70184	743.05798	-710.85681	251.52045	642.43646	-662.00610	203.03255	532.96179	-753.25494	257.65509	503.20294	-517.81250	-72.90948	143.19971	-718.45410	69.29109	217.26204	-549.21710	-24.66994	164.82242	-675.07611	52.07523	159.70439	-795.01233	179.61746	185.11140	-763.99884	226.94008	206.10748	-588.61536	207.75317	174.15210	-882.65796	295.96774	144.55576	-552.26569	243.50044	166.04044	-652.82019	291.87872	156.60915	-615.47247	297.75177	158.63475	-528.18390	304.18793	146.52794	-669.97217	-75.53672	1534.08484	-773.73413	89.30378	1056.66040	-793.42487	39.00464	175.87379	-751.46521	-46.44059	490.62653	-600.24097	27.44851	168.21054	-875.85522	-78.73365	141.22168	-634.28711	-74.36367	870.33380	-660.61377	-64.43429	755.92310				-693.26007	-37.49282	614.38159	-703.62665	-34.64191	568.43817	-713.57343	150.25143	216.26958	-675.03308	165.85553	156.84612	-606.38019	-72.70918	158.12592	-649.08154	-68.16327	160.94803	-759.50555	-20.03206	207.56673	-656.07983	11.79318	518.19727	-580.75983	109.83374	1351.94873				-580.76514	241.53635	1064.33630	-663.00415	284.43195	872.70886	-680.19537	72.01312	573.43195	-711.78308	246.19080	576.02008	
3	0.040	-663.17316	115.21450	1846.97888	-704.10382	285.88013	1525.02063	-565.95624	-6.40285	1053.78979	-562.64813	-7.44139	800.48462	-679.02893	142.33238	574.60400	-568.53650	220.21925	791.18311	-673.82666	268.73694	742.93225	-710.86407	251.46577	642.47369	-662.00610	203.03255	532.96179	-753.44928	257.74399	503.28888	-517.79272	-73.09831	143.42339	-718.32037	69.11367	217.25253	-549.19299	-24.66978	164.78026	-675.04352	52.36468	159.90195	-795.08777	179.61200	185.31136	-764.09009	226.90471	206.42143	-588.81921	207.85846	173.68051	-882.65106	296.20639	144.76984	-552.17896	243.60944	166.03656	-652.74921	291.92099	156.91879	-615.46100	297.82016	158.58798	-528.26489	304.31021	146.52255	-670.07709	-75.42064	1534.13477	-773.67926	89.39806	1056.61072	-793.42401	38.93058	175.80728	-751.54315	-46.42865	490.71570	-600.17847	27.63265	168.16006	-875.96130	-78.84709	141.39201	-634.50946	-74.39336	870.27380	-660.64374	-64.41837	755.90698				-693.08838	-37.81923	614.66168	-703.72229	-34.55932	568.38263	-713.35547	150.41803	215.92894	-675.03308	165.85553	156.84612	-606.52344	-72.56071	158.01239	-649.10553	-68.29138	160.94954	-759.50555	-20.03206	207.56673	-656.16083	11.90327	518.16931	-580.69971	109.72472	1352.01807				-580.81256	241.75664	1064.32141	-663.00415	284.43195	872.70886	-680.41913	72.12205	573.52856	-711.80402	246.10918	576.12585	
4	0.060	-663.18335	115.32985	1846.98999	-704.21448	285.85614	1525.14087	-565.87177	-6.49760	1053.88501	-562.71790	-7.55119	800.49341	-678.71912	142.19312	574.78296	-568.71533	220.32622	791.10950	-673.82666	268.73694	742.93225	-710.80841	251.51657	642.54626	-662.02386	203.10222	533.08215	-753.27649	257.54175	503.33179	-517.93622	-73.07472	143.23944	-718.32037	69.11367	217.25253	-549.17255	-24.66406	164.65517	-675.11743	52.40264	160.22464	-794.97858	179.60376	185.10101	-764.14459	227.02115	206.32149	-589.04803	207.72411	173.72874	-882.64587	296.25531	144.66399	-552.19061	243.53419	165.97282	-652.66119	291.84299	156.98120	-615.46100	297.82016	158.58798	-528.18390	304.18793	146.52794	-670.13928	-75.51172	1534.09839	-773.72467	89.50243	1056.74390	-793.55133	38.84526	176.05406	-751.53802	-46.38485	490.76575	-600.32275	27.47660	168.08708	-875.95374	-78.68990	141.32727	-634.43439	-74.46668	870.30225	-660.59650	-64.56185	755.88446				-693.17188	-37.53878	614.46722	-703.56421	-34.77397	568.50500	-713.53638	150.38329	216.03018	-675.03308	165.85553	156.84612	-606.35724	-72.61436	158.19554	-649.08154	-68.16327	160.94803	-759.50586	-20.05772	207.55867	-656.23633	11.97580	518.18494	-580.81567	109.94570	1351.77039				-580.87360	241.54388	1064.21667	-663.00415	284.43195	872.70886	-680.41913	72.12205	573.52856	-711.94452	246.25134	576.12054	
